# xmcd CD database file
#
# Track frame offsets:
#	150
#	18752
#	37610
#	57592
#	75112
#	98330
#	119980
#	141390
#	164115
#	179437
#	195300
#	223950
#	241772
#	269490
#	296077
#
# Disc length: 4381 seconds
#
# Revision: 0
# Processed by: cddbd v1.5.1PL0 Copyright (c) Steve Scherf et al.
# Submitted via: CDex 1.51
#
DISCID=d6111b0f
DTITLE=REEL 2 REAL featuring THE MAD STUNTMAN - ARE YOU READY FOR SOME MORE
DYEAR=1900
DGENRE=House
TTITLE0=ARE YOU READY FOR SOME MORE
TTITLE1=JASS IT UP
TTITLE2=LIFE'S FUNKY
TTITLE3=PICK YOUR CHOYCE
TTITLE4=MUEVE LA CADERA(MOVE YOUR BODY)
TTITLE5=OUHHH BABY BABY
TTITLE6=DO NOT PANIC
TTITLE7=LOVE HURTS
TTITLE8=NOW THAT WE FOUND LOVE
TTITLE9=JUMP AROUND
TTITLE10=WICKED and WILD
TTITLE11=I LIKE IT LIKE THAT
TTITLE12=ARE YOU READY FOR SOME MORE[Erick MORE Dub]
TTITLE13=ARE YOU READY FOR SOME MORE[TNT'S FROOZEN MIX]
TTITLE14=ARE YOU READY FOR SOME MORE[TEE'S FREEZE CLUB MIX]
EXTD=
EXTT0=
EXTT1=
EXTT2=
EXTT3=
EXTT4=
EXTT5=
EXTT6=
EXTT7=
EXTT8=
EXTT9=
EXTT10=
EXTT11=
EXTT12=
EXTT13=
EXTT14=
PLAYORDER=
